# xmcd
#
# Track frame offsets: 
#        150
#        11841
#        24465
#        37385
#        49689
#        62213
#        77642
#        88086
#        101779
#        113398
#        127397
#        140183
#        154511
#        166089
#        175846
#        190921
#        206246
#        220512
#        234963
#        246827
#
# Disc length: 3447 seconds
#
# Revision: 0
# Processed by: cddbd v1.5.2PL0 Copyright (c) Steve Scherf et al.
# Submitted via: ExactAudioCopy v1.0b3
#
DISCID=1a0d7514
DTITLE=Ray Charles - Simply Ray Charles [CD1)
DYEAR=2010
DGENRE=Blues
TTITLE0=Hallehlujah, I Love Her So
TTITLE1=I Got A Woman
TTITLE2=Ain't That Love
TTITLE3=It Should've Been Me
TTITLE4=Mary Ann
TTITLE5=(Night Time Is) The Right Time
TTITLE6=Blackjack
TTITLE7=A Fool For You
TTITLE8=Lonely Avenue
TTITLE9=Come Back baby
TTITLE10=Greenbacks
TTITLE11=Kissa Me Baby
TTITLE12=What Would I Do Without You
TTITLE13=I Want To Know
TTITLE14=Drown in My Own tears
TTITLE15=Sinner's Prayer
TTITLE16=Some Day (Blues Is My Middle Name)
TTITLE17=Losing Hand
TTITLE18=The Sun's Gonna Shine Again
TTITLE19=If I Give You My Love
EXTD=
EXTT0=
EXTT1=
EXTT2=
EXTT3=
EXTT4=
EXTT5=
EXTT6=
EXTT7=
EXTT8=
EXTT9=
EXTT10=
EXTT11=
EXTT12=
EXTT13=
EXTT14=
EXTT15=
EXTT16=
EXTT17=
EXTT18=
EXTT19=
PLAYORDER=
